<mxfile host="app.diagrams.net" modified="2021-08-06T01:57:30.235Z" agent="5.0 (Windows NT 10.0; Win64; x64) AppleWebKit/537.36 (KHTML, like Gecko) Chrome/92.0.4515.107 Safari/537.36" etag="WPfv8ejODTz3bqatR-bJ" version="14.9.3" type="github" pages="4">
  <diagram id="CNzYl6hBsAOlmwhD_sxs" name="NetWork">
    <mxGraphModel dx="2844" dy="1412" grid="1" gridSize="10" guides="1" tooltips="1" connect="1" arrows="1" fold="1" page="1" pageScale="1" pageWidth="3300" pageHeight="4681" math="0" shadow="0">
      <root>
        <mxCell id="0" />
        <mxCell id="1" parent="0" />
        <mxCell id="sKeyVIw8MV7mgdZx4ZkK-2" value="" style="rounded=1;whiteSpace=wrap;html=1;" vertex="1" parent="1">
          <mxGeometry x="370" y="840" width="500" height="260" as="geometry" />
        </mxCell>
        <mxCell id="sKeyVIw8MV7mgdZx4ZkK-3" value="&lt;font style=&quot;font-size: 24px&quot;&gt;&lt;b&gt;NIC&lt;/b&gt;&lt;/font&gt;" style="text;html=1;strokeColor=none;fillColor=none;align=center;verticalAlign=middle;whiteSpace=wrap;rounded=0;" vertex="1" parent="1">
          <mxGeometry x="390" y="860" width="110" height="20" as="geometry" />
        </mxCell>
        <mxCell id="sKeyVIw8MV7mgdZx4ZkK-6" value="" style="rounded=1;whiteSpace=wrap;html=1;" vertex="1" parent="1">
          <mxGeometry x="370" y="1220" width="500" height="260" as="geometry" />
        </mxCell>
        <mxCell id="sKeyVIw8MV7mgdZx4ZkK-7" value="&lt;font style=&quot;font-size: 24px&quot;&gt;&lt;b&gt;Traffic Controller&lt;/b&gt;&lt;/font&gt;" style="text;html=1;strokeColor=none;fillColor=none;align=center;verticalAlign=middle;whiteSpace=wrap;rounded=0;" vertex="1" parent="1">
          <mxGeometry x="390" y="1260" width="230" height="20" as="geometry" />
        </mxCell>
        <mxCell id="sKeyVIw8MV7mgdZx4ZkK-8" value="" style="rounded=1;whiteSpace=wrap;html=1;" vertex="1" parent="1">
          <mxGeometry x="370" y="1560" width="500" height="260" as="geometry" />
        </mxCell>
        <mxCell id="sKeyVIw8MV7mgdZx4ZkK-9" value="&lt;font style=&quot;font-size: 24px&quot;&gt;&lt;b&gt;NetFilter&lt;/b&gt;&lt;/font&gt;" style="text;html=1;strokeColor=none;fillColor=none;align=center;verticalAlign=middle;whiteSpace=wrap;rounded=0;" vertex="1" parent="1">
          <mxGeometry x="390" y="1580" width="230" height="20" as="geometry" />
        </mxCell>
        <mxCell id="sKeyVIw8MV7mgdZx4ZkK-10" value="" style="rounded=1;whiteSpace=wrap;html=1;" vertex="1" parent="1">
          <mxGeometry x="370" y="1900" width="500" height="260" as="geometry" />
        </mxCell>
        <mxCell id="sKeyVIw8MV7mgdZx4ZkK-11" value="&lt;font style=&quot;font-size: 24px&quot;&gt;&lt;b&gt;Application&lt;/b&gt;&lt;/font&gt;" style="text;html=1;strokeColor=none;fillColor=none;align=center;verticalAlign=middle;whiteSpace=wrap;rounded=0;" vertex="1" parent="1">
          <mxGeometry x="390" y="1920" width="230" height="20" as="geometry" />
        </mxCell>
        <mxCell id="JQkKBRnxrC-I06NZetCw-1" value="&lt;font style=&quot;font-size: 36px&quot;&gt;NIC&lt;/font&gt;" style="rounded=0;whiteSpace=wrap;html=1;" vertex="1" parent="1">
          <mxGeometry x="1295" y="1000" width="260" height="100" as="geometry" />
        </mxCell>
        <mxCell id="JQkKBRnxrC-I06NZetCw-3" value="&lt;font style=&quot;font-size: 11px&quot;&gt;Packet&lt;/font&gt;" style="whiteSpace=wrap;html=1;aspect=fixed;rounded=0;" vertex="1" parent="1">
          <mxGeometry x="1700" y="1025" width="50" height="50" as="geometry" />
        </mxCell>
        <mxCell id="JQkKBRnxrC-I06NZetCw-5" value="" style="ellipse;whiteSpace=wrap;html=1;aspect=fixed;rounded=0;" vertex="1" parent="1">
          <mxGeometry x="1510" y="1670" width="40" height="40" as="geometry" />
        </mxCell>
        <mxCell id="JQkKBRnxrC-I06NZetCw-14" value="" style="endArrow=classic;html=1;entryX=0;entryY=0.5;entryDx=0;entryDy=0;exitX=1;exitY=0.5;exitDx=0;exitDy=0;" edge="1" parent="1" source="JQkKBRnxrC-I06NZetCw-1" target="JQkKBRnxrC-I06NZetCw-3">
          <mxGeometry width="50" height="50" relative="1" as="geometry">
            <mxPoint x="1540" y="1120" as="sourcePoint" />
            <mxPoint x="1590" y="1070" as="targetPoint" />
          </mxGeometry>
        </mxCell>
        <mxCell id="JQkKBRnxrC-I06NZetCw-17" value="&lt;font style=&quot;font-size: 15px&quot;&gt;DMA&lt;/font&gt;" style="text;html=1;strokeColor=none;fillColor=none;align=center;verticalAlign=middle;whiteSpace=wrap;rounded=0;" vertex="1" parent="1">
          <mxGeometry x="1610" y="1024" width="40" height="20" as="geometry" />
        </mxCell>
        <mxCell id="JQkKBRnxrC-I06NZetCw-18" value="&lt;font style=&quot;font-size: 36px&quot;&gt;CPU&lt;/font&gt;" style="rounded=0;whiteSpace=wrap;html=1;" vertex="1" parent="1">
          <mxGeometry x="1322.5" y="1200" width="205" height="100" as="geometry" />
        </mxCell>
        <mxCell id="JQkKBRnxrC-I06NZetCw-20" value="&lt;font style=&quot;font-size: 36px&quot;&gt;NIC Driver&lt;/font&gt;" style="rounded=0;whiteSpace=wrap;html=1;" vertex="1" parent="1">
          <mxGeometry x="1700" y="1200" width="260" height="100" as="geometry" />
        </mxCell>
        <mxCell id="JQkKBRnxrC-I06NZetCw-22" value="&lt;font style=&quot;font-size: 15px&quot;&gt;Ingress&lt;/font&gt;" style="text;html=1;strokeColor=none;fillColor=none;align=center;verticalAlign=middle;whiteSpace=wrap;rounded=0;" vertex="1" parent="1">
          <mxGeometry x="1440" y="950" width="60" height="20" as="geometry" />
        </mxCell>
        <mxCell id="JQkKBRnxrC-I06NZetCw-24" value="" style="endArrow=classic;html=1;entryX=0.5;entryY=0;entryDx=0;entryDy=0;exitX=0.5;exitY=1;exitDx=0;exitDy=0;" edge="1" parent="1" source="JQkKBRnxrC-I06NZetCw-1" target="JQkKBRnxrC-I06NZetCw-18">
          <mxGeometry width="50" height="50" relative="1" as="geometry">
            <mxPoint x="1565" y="1060" as="sourcePoint" />
            <mxPoint x="1710" y="1060" as="targetPoint" />
          </mxGeometry>
        </mxCell>
        <mxCell id="JQkKBRnxrC-I06NZetCw-25" value="&lt;font style=&quot;font-size: 15px&quot;&gt;Raise IRQ&lt;/font&gt;" style="text;html=1;strokeColor=none;fillColor=none;align=center;verticalAlign=middle;whiteSpace=wrap;rounded=0;" vertex="1" parent="1">
          <mxGeometry x="1430" y="1140" width="90" height="20" as="geometry" />
        </mxCell>
        <mxCell id="JQkKBRnxrC-I06NZetCw-27" value="" style="endArrow=classic;html=1;entryX=0;entryY=0.5;entryDx=0;entryDy=0;exitX=1;exitY=0.5;exitDx=0;exitDy=0;" edge="1" parent="1" source="JQkKBRnxrC-I06NZetCw-18" target="JQkKBRnxrC-I06NZetCw-20">
          <mxGeometry width="50" height="50" relative="1" as="geometry">
            <mxPoint x="1435" y="1110" as="sourcePoint" />
            <mxPoint x="1435" y="1210" as="targetPoint" />
          </mxGeometry>
        </mxCell>
        <mxCell id="JQkKBRnxrC-I06NZetCw-28" value="&lt;font style=&quot;font-size: 15px&quot;&gt;Run IRQ Handler&lt;/font&gt;" style="text;html=1;strokeColor=none;fillColor=none;align=center;verticalAlign=middle;whiteSpace=wrap;rounded=0;" vertex="1" parent="1">
          <mxGeometry x="1550" y="1220" width="130" height="20" as="geometry" />
        </mxCell>
        <mxCell id="JQkKBRnxrC-I06NZetCw-29" value="" style="endArrow=classic;html=1;entryX=1;entryY=0.5;entryDx=0;entryDy=0;exitX=0.5;exitY=0;exitDx=0;exitDy=0;" edge="1" parent="1" source="JQkKBRnxrC-I06NZetCw-20" target="JQkKBRnxrC-I06NZetCw-1">
          <mxGeometry width="50" height="50" relative="1" as="geometry">
            <mxPoint x="1537.5" y="1260" as="sourcePoint" />
            <mxPoint x="1710" y="1260" as="targetPoint" />
          </mxGeometry>
        </mxCell>
        <mxCell id="JQkKBRnxrC-I06NZetCw-30" value="&lt;font style=&quot;font-size: 15px&quot;&gt;Disable IRQ&lt;/font&gt;" style="text;html=1;strokeColor=none;fillColor=none;align=center;verticalAlign=middle;whiteSpace=wrap;rounded=0;" vertex="1" parent="1">
          <mxGeometry x="1730" y="1120" width="130" height="20" as="geometry" />
        </mxCell>
        <mxCell id="JQkKBRnxrC-I06NZetCw-31" value="&lt;font style=&quot;font-size: 36px&quot;&gt;ksoftirqd&lt;/font&gt;" style="rounded=0;whiteSpace=wrap;html=1;" vertex="1" parent="1">
          <mxGeometry x="1700" y="1420" width="260" height="100" as="geometry" />
        </mxCell>
        <mxCell id="JQkKBRnxrC-I06NZetCw-32" value="" style="endArrow=classic;html=1;entryX=0.5;entryY=0;entryDx=0;entryDy=0;exitX=0.5;exitY=1;exitDx=0;exitDy=0;" edge="1" parent="1" source="JQkKBRnxrC-I06NZetCw-20" target="JQkKBRnxrC-I06NZetCw-31">
          <mxGeometry width="50" height="50" relative="1" as="geometry">
            <mxPoint x="1435" y="1110" as="sourcePoint" />
            <mxPoint x="1435" y="1210" as="targetPoint" />
          </mxGeometry>
        </mxCell>
        <mxCell id="JQkKBRnxrC-I06NZetCw-33" value="&lt;font style=&quot;font-size: 15px&quot;&gt;Raise softIRQ&lt;/font&gt;" style="text;html=1;strokeColor=none;fillColor=none;align=center;verticalAlign=middle;whiteSpace=wrap;rounded=0;" vertex="1" parent="1">
          <mxGeometry x="1710" y="1350" width="130" height="20" as="geometry" />
        </mxCell>
        <mxCell id="JQkKBRnxrC-I06NZetCw-34" value="&lt;font style=&quot;font-size: 36px&quot;&gt;net_rx_action&lt;br&gt;NAPI&lt;br&gt;&lt;/font&gt;" style="rounded=0;whiteSpace=wrap;html=1;" vertex="1" parent="1">
          <mxGeometry x="1070" y="1420" width="290" height="100" as="geometry" />
        </mxCell>
        <mxCell id="JQkKBRnxrC-I06NZetCw-35" value="" style="endArrow=classic;html=1;exitX=0;exitY=0.5;exitDx=0;exitDy=0;" edge="1" parent="1" source="JQkKBRnxrC-I06NZetCw-31" target="JQkKBRnxrC-I06NZetCw-34">
          <mxGeometry width="50" height="50" relative="1" as="geometry">
            <mxPoint x="1537.5" y="1260" as="sourcePoint" />
            <mxPoint x="1710" y="1260" as="targetPoint" />
          </mxGeometry>
        </mxCell>
        <mxCell id="JQkKBRnxrC-I06NZetCw-36" value="" style="endArrow=classic;html=1;entryX=0;entryY=0.5;entryDx=0;entryDy=0;exitX=0.5;exitY=0;exitDx=0;exitDy=0;edgeStyle=orthogonalEdgeStyle;" edge="1" parent="1" source="JQkKBRnxrC-I06NZetCw-34" target="JQkKBRnxrC-I06NZetCw-1">
          <mxGeometry width="50" height="50" relative="1" as="geometry">
            <mxPoint x="1710" y="1480" as="sourcePoint" />
            <mxPoint x="1370" y="1480" as="targetPoint" />
          </mxGeometry>
        </mxCell>
        <mxCell id="JQkKBRnxrC-I06NZetCw-37" value="&lt;font style=&quot;font-size: 15px&quot;&gt;Call&lt;/font&gt;" style="text;html=1;strokeColor=none;fillColor=none;align=center;verticalAlign=middle;whiteSpace=wrap;rounded=0;" vertex="1" parent="1">
          <mxGeometry x="1465" y="1440" width="130" height="20" as="geometry" />
        </mxCell>
        <mxCell id="JQkKBRnxrC-I06NZetCw-39" value="&lt;font style=&quot;font-size: 15px&quot;&gt;Poll&lt;/font&gt;" style="text;html=1;strokeColor=none;fillColor=none;align=center;verticalAlign=middle;whiteSpace=wrap;rounded=0;" vertex="1" parent="1">
          <mxGeometry x="1170" y="1280" width="70" height="20" as="geometry" />
        </mxCell>
        <mxCell id="JQkKBRnxrC-I06NZetCw-85" value="" style="rounded=1;whiteSpace=wrap;html=1;glass=0;sketch=0;" vertex="1" parent="1">
          <mxGeometry x="2484" y="715" width="140" height="230" as="geometry" />
        </mxCell>
        <mxCell id="JQkKBRnxrC-I06NZetCw-56" value="" style="rounded=1;whiteSpace=wrap;html=1;glass=0;sketch=0;" vertex="1" parent="1">
          <mxGeometry x="2210" y="695" width="200" height="280" as="geometry" />
        </mxCell>
        <mxCell id="JQkKBRnxrC-I06NZetCw-57" value="&lt;font style=&quot;font-size: 36px&quot;&gt;NIC&lt;/font&gt;" style="text;html=1;strokeColor=none;fillColor=none;align=center;verticalAlign=middle;whiteSpace=wrap;rounded=0;glass=0;sketch=0;" vertex="1" parent="1">
          <mxGeometry x="2255" y="695" width="110" height="80" as="geometry" />
        </mxCell>
        <mxCell id="JQkKBRnxrC-I06NZetCw-58" value="&lt;font style=&quot;font-size: 24px&quot;&gt;DMA Engine&lt;/font&gt;" style="rounded=0;whiteSpace=wrap;html=1;glass=0;sketch=0;" vertex="1" parent="1">
          <mxGeometry x="2230.5" y="840" width="159" height="51" as="geometry" />
        </mxCell>
        <mxCell id="JQkKBRnxrC-I06NZetCw-61" value="" style="rounded=0;whiteSpace=wrap;html=1;glass=0;sketch=0;" vertex="1" parent="1">
          <mxGeometry x="2510" y="882" width="18" height="30" as="geometry" />
        </mxCell>
        <mxCell id="JQkKBRnxrC-I06NZetCw-62" value="" style="endArrow=classic;html=1;entryX=0.5;entryY=0;entryDx=0;entryDy=0;exitX=0.209;exitY=0.902;exitDx=0;exitDy=0;exitPerimeter=0;" edge="1" parent="1" source="JQkKBRnxrC-I06NZetCw-40" target="JQkKBRnxrC-I06NZetCw-61">
          <mxGeometry x="2234" y="685" width="50" height="50" as="geometry">
            <mxPoint x="2464" y="852" as="sourcePoint" />
            <mxPoint x="2384" y="965" as="targetPoint" />
          </mxGeometry>
        </mxCell>
        <mxCell id="JQkKBRnxrC-I06NZetCw-40" value="" style="ellipse;whiteSpace=wrap;html=1;aspect=fixed;rounded=0;" vertex="1" parent="1">
          <mxGeometry x="2494" y="745" width="120" height="120" as="geometry" />
        </mxCell>
        <mxCell id="JQkKBRnxrC-I06NZetCw-41" value="" style="ellipse;whiteSpace=wrap;html=1;aspect=fixed;rounded=0;" vertex="1" parent="1">
          <mxGeometry x="2511.5" y="762.5" width="85" height="85" as="geometry" />
        </mxCell>
        <mxCell id="JQkKBRnxrC-I06NZetCw-44" value="" style="endArrow=none;html=1;exitX=0.5;exitY=0;exitDx=0;exitDy=0;entryX=0.5;entryY=0;entryDx=0;entryDy=0;" edge="1" parent="1" source="JQkKBRnxrC-I06NZetCw-41" target="JQkKBRnxrC-I06NZetCw-40">
          <mxGeometry x="2494" y="745" width="50" height="50" as="geometry">
            <mxPoint x="2464" y="775" as="sourcePoint" />
            <mxPoint x="2514" y="725" as="targetPoint" />
          </mxGeometry>
        </mxCell>
        <mxCell id="JQkKBRnxrC-I06NZetCw-45" value="" style="endArrow=none;html=1;exitX=0;exitY=0;exitDx=0;exitDy=0;entryX=0;entryY=0;entryDx=0;entryDy=0;" edge="1" parent="1" source="JQkKBRnxrC-I06NZetCw-41" target="JQkKBRnxrC-I06NZetCw-40">
          <mxGeometry x="2494" y="745" width="50" height="50" as="geometry">
            <mxPoint x="2564" y="780" as="sourcePoint" />
            <mxPoint x="2514" y="765" as="targetPoint" />
          </mxGeometry>
        </mxCell>
        <mxCell id="JQkKBRnxrC-I06NZetCw-46" value="" style="endArrow=none;html=1;exitX=0;exitY=0.5;exitDx=0;exitDy=0;entryX=0;entryY=0.5;entryDx=0;entryDy=0;" edge="1" parent="1" source="JQkKBRnxrC-I06NZetCw-41" target="JQkKBRnxrC-I06NZetCw-40">
          <mxGeometry x="2494" y="745" width="50" height="50" as="geometry">
            <mxPoint x="2539.251262658471" y="790.251262658471" as="sourcePoint" />
            <mxPoint x="2521.5735931288073" y="772.5735931288073" as="targetPoint" />
          </mxGeometry>
        </mxCell>
        <mxCell id="JQkKBRnxrC-I06NZetCw-47" value="" style="endArrow=none;html=1;exitX=0;exitY=1;exitDx=0;exitDy=0;" edge="1" parent="1" source="JQkKBRnxrC-I06NZetCw-41" target="JQkKBRnxrC-I06NZetCw-40">
          <mxGeometry x="2494" y="745" width="50" height="50" as="geometry">
            <mxPoint x="2529.000000000001" y="815" as="sourcePoint" />
            <mxPoint x="2504" y="815" as="targetPoint" />
          </mxGeometry>
        </mxCell>
        <mxCell id="JQkKBRnxrC-I06NZetCw-48" value="" style="endArrow=none;html=1;exitX=0.5;exitY=1;exitDx=0;exitDy=0;entryX=0.5;entryY=1;entryDx=0;entryDy=0;" edge="1" parent="1" source="JQkKBRnxrC-I06NZetCw-41" target="JQkKBRnxrC-I06NZetCw-40">
          <mxGeometry x="2494" y="745" width="50" height="50" as="geometry">
            <mxPoint x="2539.251262658471" y="839.748737341529" as="sourcePoint" />
            <mxPoint x="2521.5735931288073" y="857.4264068711927" as="targetPoint" />
          </mxGeometry>
        </mxCell>
        <mxCell id="JQkKBRnxrC-I06NZetCw-50" value="" style="endArrow=none;html=1;exitX=1;exitY=0;exitDx=0;exitDy=0;" edge="1" parent="1" source="JQkKBRnxrC-I06NZetCw-41" target="JQkKBRnxrC-I06NZetCw-40">
          <mxGeometry x="2494" y="745" width="50" height="50" as="geometry">
            <mxPoint x="2539.2512626584585" y="790.2512626584587" as="sourcePoint" />
            <mxPoint x="2521.5735931288073" y="772.5735931288073" as="targetPoint" />
          </mxGeometry>
        </mxCell>
        <mxCell id="JQkKBRnxrC-I06NZetCw-51" value="" style="endArrow=none;html=1;exitX=1;exitY=0.5;exitDx=0;exitDy=0;entryX=1;entryY=0.5;entryDx=0;entryDy=0;" edge="1" parent="1" source="JQkKBRnxrC-I06NZetCw-41" target="JQkKBRnxrC-I06NZetCw-40">
          <mxGeometry x="2494" y="745" width="50" height="50" as="geometry">
            <mxPoint x="2588.7487373415415" y="790.2512626584587" as="sourcePoint" />
            <mxPoint x="2654" y="785" as="targetPoint" />
          </mxGeometry>
        </mxCell>
        <mxCell id="JQkKBRnxrC-I06NZetCw-52" value="" style="endArrow=none;html=1;exitX=1;exitY=1;exitDx=0;exitDy=0;entryX=1;entryY=1;entryDx=0;entryDy=0;" edge="1" parent="1" source="JQkKBRnxrC-I06NZetCw-41" target="JQkKBRnxrC-I06NZetCw-40">
          <mxGeometry x="2494" y="745" width="50" height="50" as="geometry">
            <mxPoint x="2598.9999999999986" y="815" as="sourcePoint" />
            <mxPoint x="2624" y="815" as="targetPoint" />
          </mxGeometry>
        </mxCell>
        <mxCell id="JQkKBRnxrC-I06NZetCw-67" value="" style="endArrow=none;html=1;exitX=0.041;exitY=0.299;exitDx=0;exitDy=0;entryX=0.042;entryY=0.301;entryDx=0;entryDy=0;exitPerimeter=0;entryPerimeter=0;" edge="1" parent="1" source="JQkKBRnxrC-I06NZetCw-41" target="JQkKBRnxrC-I06NZetCw-40">
          <mxGeometry x="2481.55" y="757.4300000000001" width="50" height="50" as="geometry">
            <mxPoint x="2511.4979617995714" y="787.377961799571" as="sourcePoint" />
            <mxPoint x="2499.123593128812" y="775.0035931288119" as="targetPoint" />
          </mxGeometry>
        </mxCell>
        <mxCell id="JQkKBRnxrC-I06NZetCw-68" value="" style="endArrow=none;html=1;exitX=0.036;exitY=0.688;exitDx=0;exitDy=0;exitPerimeter=0;entryX=0.036;entryY=0.686;entryDx=0;entryDy=0;entryPerimeter=0;" edge="1" parent="1" source="JQkKBRnxrC-I06NZetCw-41" target="JQkKBRnxrC-I06NZetCw-40">
          <mxGeometry x="2491.55" y="767.4300000000001" width="50" height="50" as="geometry">
            <mxPoint x="2514" y="820" as="sourcePoint" />
            <mxPoint x="2498" y="826" as="targetPoint" />
          </mxGeometry>
        </mxCell>
        <mxCell id="JQkKBRnxrC-I06NZetCw-69" value="" style="endArrow=none;html=1;exitX=0.31;exitY=0.957;exitDx=0;exitDy=0;exitPerimeter=0;" edge="1" parent="1" source="JQkKBRnxrC-I06NZetCw-41">
          <mxGeometry x="2501.55" y="777.4300000000001" width="50" height="50" as="geometry">
            <mxPoint x="2524.56" y="830.98" as="sourcePoint" />
            <mxPoint x="2530" y="860" as="targetPoint" />
          </mxGeometry>
        </mxCell>
        <mxCell id="JQkKBRnxrC-I06NZetCw-70" value="" style="endArrow=none;html=1;entryX=0.704;entryY=0.955;entryDx=0;entryDy=0;entryPerimeter=0;exitX=0.699;exitY=0.963;exitDx=0;exitDy=0;exitPerimeter=0;" edge="1" parent="1" source="JQkKBRnxrC-I06NZetCw-41" target="JQkKBRnxrC-I06NZetCw-40">
          <mxGeometry x="2511.55" y="787.4300000000001" width="50" height="50" as="geometry">
            <mxPoint x="2571" y="844" as="sourcePoint" />
            <mxPoint x="2540" y="870" as="targetPoint" />
          </mxGeometry>
        </mxCell>
        <mxCell id="JQkKBRnxrC-I06NZetCw-71" value="" style="endArrow=none;html=1;exitX=0.969;exitY=0.686;exitDx=0;exitDy=0;exitPerimeter=0;" edge="1" parent="1" source="JQkKBRnxrC-I06NZetCw-41">
          <mxGeometry x="2521.55" y="797.4300000000001" width="50" height="50" as="geometry">
            <mxPoint x="2624" y="845" as="sourcePoint" />
            <mxPoint x="2610" y="827" as="targetPoint" />
          </mxGeometry>
        </mxCell>
        <mxCell id="JQkKBRnxrC-I06NZetCw-72" value="" style="endArrow=none;html=1;exitX=0.964;exitY=0.311;exitDx=0;exitDy=0;exitPerimeter=0;entryX=0.959;entryY=0.306;entryDx=0;entryDy=0;entryPerimeter=0;" edge="1" parent="1" source="JQkKBRnxrC-I06NZetCw-41" target="JQkKBRnxrC-I06NZetCw-40">
          <mxGeometry x="2531.55" y="807.4300000000001" width="50" height="50" as="geometry">
            <mxPoint x="2603.8650000000002" y="830.81" as="sourcePoint" />
            <mxPoint x="2620" y="837" as="targetPoint" />
          </mxGeometry>
        </mxCell>
        <mxCell id="JQkKBRnxrC-I06NZetCw-73" value="" style="endArrow=none;html=1;entryX=0.697;entryY=0.044;entryDx=0;entryDy=0;entryPerimeter=0;exitX=0.699;exitY=0.042;exitDx=0;exitDy=0;exitPerimeter=0;" edge="1" parent="1" source="JQkKBRnxrC-I06NZetCw-41" target="JQkKBRnxrC-I06NZetCw-40">
          <mxGeometry x="2541.55" y="817.4300000000001" width="50" height="50" as="geometry">
            <mxPoint x="2570" y="765" as="sourcePoint" />
            <mxPoint x="2619.9199999999996" y="792.2" as="targetPoint" />
          </mxGeometry>
        </mxCell>
        <mxCell id="JQkKBRnxrC-I06NZetCw-74" value="" style="endArrow=none;html=1;exitX=0.309;exitY=0.036;exitDx=0;exitDy=0;exitPerimeter=0;entryX=0.306;entryY=0.037;entryDx=0;entryDy=0;entryPerimeter=0;" edge="1" parent="1" source="JQkKBRnxrC-I06NZetCw-41" target="JQkKBRnxrC-I06NZetCw-40">
          <mxGeometry x="2551.55" y="827.4300000000001" width="50" height="50" as="geometry">
            <mxPoint x="2580.915" y="776.07" as="sourcePoint" />
            <mxPoint x="2531" y="750" as="targetPoint" />
          </mxGeometry>
        </mxCell>
        <mxCell id="JQkKBRnxrC-I06NZetCw-75" value="" style="endArrow=classic;html=1;entryX=0.5;entryY=0;entryDx=0;entryDy=0;exitX=0.402;exitY=0.984;exitDx=0;exitDy=0;exitPerimeter=0;" edge="1" parent="1" source="JQkKBRnxrC-I06NZetCw-40" target="JQkKBRnxrC-I06NZetCw-76">
          <mxGeometry x="2234" y="685" width="50" height="50" as="geometry">
            <mxPoint x="2541" y="863" as="sourcePoint" />
            <mxPoint x="2541" y="935" as="targetPoint" />
          </mxGeometry>
        </mxCell>
        <mxCell id="JQkKBRnxrC-I06NZetCw-79" value="" style="endArrow=classic;html=1;exitX=0.608;exitY=0.99;exitDx=0;exitDy=0;exitPerimeter=0;entryX=0.5;entryY=0;entryDx=0;entryDy=0;" edge="1" parent="1" source="JQkKBRnxrC-I06NZetCw-40" target="JQkKBRnxrC-I06NZetCw-80">
          <mxGeometry x="2234" y="685" width="50" height="50" as="geometry">
            <mxPoint x="2601" y="864" as="sourcePoint" />
            <mxPoint x="2567" y="895" as="targetPoint" />
          </mxGeometry>
        </mxCell>
        <mxCell id="JQkKBRnxrC-I06NZetCw-80" value="" style="rounded=0;whiteSpace=wrap;html=1;glass=0;sketch=0;fillColor=#CCCCCC;" vertex="1" parent="1">
          <mxGeometry x="2558" y="894" width="19" height="30" as="geometry" />
        </mxCell>
        <mxCell id="JQkKBRnxrC-I06NZetCw-82" value="" style="rounded=0;whiteSpace=wrap;html=1;glass=0;sketch=0;fillColor=#CCCCCC;" vertex="1" parent="1">
          <mxGeometry x="2581" y="881" width="18" height="30" as="geometry" />
        </mxCell>
        <mxCell id="JQkKBRnxrC-I06NZetCw-64" value="" style="endArrow=classic;html=1;exitX=0.795;exitY=0.902;exitDx=0;exitDy=0;exitPerimeter=0;entryX=0.5;entryY=0;entryDx=0;entryDy=0;" edge="1" parent="1" source="JQkKBRnxrC-I06NZetCw-40" target="JQkKBRnxrC-I06NZetCw-82">
          <mxGeometry x="2234" y="685" width="50" height="50" as="geometry">
            <mxPoint x="2540" y="870" as="sourcePoint" />
            <mxPoint x="2591" y="885" as="targetPoint" />
          </mxGeometry>
        </mxCell>
        <mxCell id="JQkKBRnxrC-I06NZetCw-83" value="&lt;font style=&quot;font-size: 12px&quot;&gt;Packet&lt;/font&gt;" style="text;html=1;strokeColor=none;fillColor=none;align=center;verticalAlign=middle;whiteSpace=wrap;rounded=0;glass=0;sketch=0;" vertex="1" parent="1">
          <mxGeometry x="2504" y="925" width="100" height="20" as="geometry" />
        </mxCell>
        <mxCell id="JQkKBRnxrC-I06NZetCw-86" value="&lt;font style=&quot;font-size: 18px&quot;&gt;Ring Buffer&lt;/font&gt;" style="text;html=1;strokeColor=none;fillColor=none;align=center;verticalAlign=middle;whiteSpace=wrap;rounded=0;glass=0;sketch=0;" vertex="1" parent="1">
          <mxGeometry x="2498" y="685" width="116" height="20" as="geometry" />
        </mxCell>
        <mxCell id="JQkKBRnxrC-I06NZetCw-60" value="&lt;font style=&quot;font-size: 12px&quot;&gt;Packet Descriptor&lt;/font&gt;" style="text;html=1;strokeColor=none;fillColor=none;align=center;verticalAlign=middle;whiteSpace=wrap;rounded=0;glass=0;sketch=0;" vertex="1" parent="1">
          <mxGeometry x="2470" y="725" width="170" height="20" as="geometry" />
        </mxCell>
        <mxCell id="JQkKBRnxrC-I06NZetCw-76" value="" style="rounded=0;whiteSpace=wrap;html=1;glass=0;sketch=0;fillColor=#CCCCCC;" vertex="1" parent="1">
          <mxGeometry x="2533" y="894" width="18" height="21" as="geometry" />
        </mxCell>
        <mxCell id="JQkKBRnxrC-I06NZetCw-93" value="" style="rounded=0;whiteSpace=wrap;html=1;glass=0;sketch=0;fillColor=#FFFFFF;" vertex="1" parent="1">
          <mxGeometry x="2533" y="915" width="18" height="10" as="geometry" />
        </mxCell>
        <mxCell id="JQkKBRnxrC-I06NZetCw-94" value="" style="endArrow=classic;html=1;exitX=1;exitY=0.5;exitDx=0;exitDy=0;entryX=0;entryY=0;entryDx=0;entryDy=0;edgeStyle=elbowEdgeStyle;" edge="1" parent="1" source="JQkKBRnxrC-I06NZetCw-58" target="JQkKBRnxrC-I06NZetCw-93">
          <mxGeometry x="2190" y="715" width="50" height="50" as="geometry">
            <mxPoint x="2620" y="915" as="sourcePoint" />
            <mxPoint x="2480" y="945" as="targetPoint" />
          </mxGeometry>
        </mxCell>
        <mxCell id="JQkKBRnxrC-I06NZetCw-103" value="2. 通过DMA复制到RingBuffer" style="edgeLabel;html=1;align=center;verticalAlign=middle;resizable=0;points=[];" vertex="1" connectable="0" parent="JQkKBRnxrC-I06NZetCw-94">
          <mxGeometry relative="1" as="geometry">
            <mxPoint x="-5" y="2" as="offset" />
          </mxGeometry>
        </mxCell>
        <mxCell id="JQkKBRnxrC-I06NZetCw-99" value="" style="rhombus;whiteSpace=wrap;html=1;rounded=0;" vertex="1" parent="1">
          <mxGeometry x="2285" y="1030" width="70" height="70" as="geometry" />
        </mxCell>
        <mxCell id="JQkKBRnxrC-I06NZetCw-100" value="" style="rhombus;whiteSpace=wrap;html=1;rounded=0;" vertex="1" parent="1">
          <mxGeometry x="2275" y="1030" width="70" height="70" as="geometry" />
        </mxCell>
        <mxCell id="JQkKBRnxrC-I06NZetCw-4" value="Packet" style="rhombus;whiteSpace=wrap;html=1;rounded=0;" vertex="1" parent="1">
          <mxGeometry x="2265" y="1030" width="70" height="70" as="geometry" />
        </mxCell>
        <mxCell id="JQkKBRnxrC-I06NZetCw-101" value="1. 数据包到达网卡" style="endArrow=classic;html=1;entryX=0.5;entryY=1;entryDx=0;entryDy=0;" edge="1" parent="1" target="JQkKBRnxrC-I06NZetCw-56">
          <mxGeometry width="50" height="50" relative="1" as="geometry">
            <mxPoint x="2310" y="1030" as="sourcePoint" />
            <mxPoint x="2325" y="990" as="targetPoint" />
          </mxGeometry>
        </mxCell>
        <mxCell id="JQkKBRnxrC-I06NZetCw-105" value="" style="rounded=1;whiteSpace=wrap;html=1;glass=0;sketch=0;" vertex="1" parent="1">
          <mxGeometry x="1920" y="780" width="150" height="190" as="geometry" />
        </mxCell>
        <mxCell id="JQkKBRnxrC-I06NZetCw-106" value="&lt;font style=&quot;font-size: 36px&quot;&gt;CPU&lt;/font&gt;" style="text;html=1;strokeColor=none;fillColor=none;align=center;verticalAlign=middle;whiteSpace=wrap;rounded=0;glass=0;sketch=0;" vertex="1" parent="1">
          <mxGeometry x="1940" y="780" width="110" height="80" as="geometry" />
        </mxCell>
        <mxCell id="JQkKBRnxrC-I06NZetCw-107" value="0. 驱动加载时创建RingBuffer" style="text;html=1;strokeColor=none;fillColor=none;align=center;verticalAlign=middle;whiteSpace=wrap;rounded=0;glass=0;sketch=0;" vertex="1" parent="1">
          <mxGeometry x="2630" y="790" width="170" height="20" as="geometry" />
        </mxCell>
        <mxCell id="JQkKBRnxrC-I06NZetCw-108" value="&lt;font style=&quot;font-size: 24px&quot;&gt;NIC Memory&lt;/font&gt;" style="rounded=0;whiteSpace=wrap;html=1;glass=0;sketch=0;" vertex="1" parent="1">
          <mxGeometry x="2230.5" y="910" width="159" height="51" as="geometry" />
        </mxCell>
        <mxCell id="JQkKBRnxrC-I06NZetCw-109" value="&lt;font style=&quot;font-size: 24px&quot;&gt;Interrupt&lt;/font&gt;" style="rounded=0;whiteSpace=wrap;html=1;glass=0;sketch=0;" vertex="1" parent="1">
          <mxGeometry x="2230.5" y="767" width="159" height="51" as="geometry" />
        </mxCell>
        <mxCell id="JQkKBRnxrC-I06NZetCw-110" value="" style="endArrow=classic;html=1;exitX=0;exitY=0.5;exitDx=0;exitDy=0;entryX=1;entryY=0.5;entryDx=0;entryDy=0;elbow=vertical;" edge="1" parent="1" source="JQkKBRnxrC-I06NZetCw-109" target="JQkKBRnxrC-I06NZetCw-105">
          <mxGeometry width="50" height="50" relative="1" as="geometry">
            <mxPoint x="1434.9999999999995" y="1110" as="sourcePoint" />
            <mxPoint x="2060" y="760" as="targetPoint" />
          </mxGeometry>
        </mxCell>
        <mxCell id="JQkKBRnxrC-I06NZetCw-111" value="3. 超过设置报文数后触发硬件中断" style="edgeLabel;html=1;align=center;verticalAlign=middle;resizable=0;points=[];" vertex="1" connectable="0" parent="JQkKBRnxrC-I06NZetCw-110">
          <mxGeometry x="0.1653" y="3" relative="1" as="geometry">
            <mxPoint as="offset" />
          </mxGeometry>
        </mxCell>
        <mxCell id="JQkKBRnxrC-I06NZetCw-122" value="" style="edgeStyle=none;rounded=0;orthogonalLoop=1;jettySize=auto;html=1;" edge="1" parent="1" source="JQkKBRnxrC-I06NZetCw-112" target="JQkKBRnxrC-I06NZetCw-120">
          <mxGeometry relative="1" as="geometry" />
        </mxCell>
        <mxCell id="JQkKBRnxrC-I06NZetCw-112" value="" style="rounded=1;whiteSpace=wrap;html=1;glass=0;sketch=0;" vertex="1" parent="1">
          <mxGeometry x="1920" y="515" width="150" height="190" as="geometry" />
        </mxCell>
        <mxCell id="JQkKBRnxrC-I06NZetCw-113" value="&lt;font style=&quot;font-size: 36px&quot;&gt;NIC Driver&lt;/font&gt;" style="text;html=1;strokeColor=none;fillColor=none;align=center;verticalAlign=middle;whiteSpace=wrap;rounded=0;glass=0;sketch=0;" vertex="1" parent="1">
          <mxGeometry x="1930" y="560" width="110" height="80" as="geometry" />
        </mxCell>
        <mxCell id="JQkKBRnxrC-I06NZetCw-114" value="" style="endArrow=classic;html=1;exitX=0.5;exitY=0;exitDx=0;exitDy=0;entryX=0.5;entryY=1;entryDx=0;entryDy=0;elbow=vertical;" edge="1" parent="1" source="JQkKBRnxrC-I06NZetCw-105" target="JQkKBRnxrC-I06NZetCw-112">
          <mxGeometry width="50" height="50" relative="1" as="geometry">
            <mxPoint x="2240.5" y="802.5" as="sourcePoint" />
            <mxPoint x="2080" y="885" as="targetPoint" />
          </mxGeometry>
        </mxCell>
        <mxCell id="JQkKBRnxrC-I06NZetCw-115" value="4. 调用网卡驱动实现的中断处理函数" style="edgeLabel;html=1;align=center;verticalAlign=middle;resizable=0;points=[];" vertex="1" connectable="0" parent="JQkKBRnxrC-I06NZetCw-114">
          <mxGeometry x="0.1653" y="3" relative="1" as="geometry">
            <mxPoint as="offset" />
          </mxGeometry>
        </mxCell>
        <mxCell id="JQkKBRnxrC-I06NZetCw-116" value="" style="endArrow=classic;html=1;exitX=1;exitY=0.5;exitDx=0;exitDy=0;elbow=vertical;" edge="1" parent="1" source="JQkKBRnxrC-I06NZetCw-112">
          <mxGeometry width="50" height="50" relative="1" as="geometry">
            <mxPoint x="2005" y="790" as="sourcePoint" />
            <mxPoint x="2230" y="790" as="targetPoint" />
          </mxGeometry>
        </mxCell>
        <mxCell id="JQkKBRnxrC-I06NZetCw-117" value="5. 一般使用NAPI会关闭中断" style="edgeLabel;html=1;align=center;verticalAlign=middle;resizable=0;points=[];" vertex="1" connectable="0" parent="JQkKBRnxrC-I06NZetCw-116">
          <mxGeometry x="0.1653" y="3" relative="1" as="geometry">
            <mxPoint as="offset" />
          </mxGeometry>
        </mxCell>
        <mxCell id="JQkKBRnxrC-I06NZetCw-118" value="" style="endArrow=classic;html=1;exitX=0.5;exitY=0;exitDx=0;exitDy=0;elbow=vertical;entryX=0.5;entryY=1;entryDx=0;entryDy=0;" edge="1" parent="1" source="JQkKBRnxrC-I06NZetCw-112" target="JQkKBRnxrC-I06NZetCw-120">
          <mxGeometry width="50" height="50" relative="1" as="geometry">
            <mxPoint x="2080" y="620" as="sourcePoint" />
            <mxPoint x="1995" y="370" as="targetPoint" />
          </mxGeometry>
        </mxCell>
        <mxCell id="JQkKBRnxrC-I06NZetCw-119" value="6. 触发软中断，进行下半部分的处理" style="edgeLabel;html=1;align=center;verticalAlign=middle;resizable=0;points=[];" vertex="1" connectable="0" parent="JQkKBRnxrC-I06NZetCw-118">
          <mxGeometry x="0.1653" y="3" relative="1" as="geometry">
            <mxPoint as="offset" />
          </mxGeometry>
        </mxCell>
        <mxCell id="JQkKBRnxrC-I06NZetCw-120" value="" style="rounded=1;whiteSpace=wrap;html=1;glass=0;sketch=0;" vertex="1" parent="1">
          <mxGeometry x="1835" y="260" width="320" height="150" as="geometry" />
        </mxCell>
        <mxCell id="JQkKBRnxrC-I06NZetCw-121" value="&lt;font style=&quot;font-size: 36px&quot;&gt;ksoftirqd&lt;br&gt;net_rx_action()&lt;br&gt;&lt;/font&gt;" style="text;html=1;strokeColor=none;fillColor=none;align=center;verticalAlign=middle;whiteSpace=wrap;rounded=0;glass=0;sketch=0;" vertex="1" parent="1">
          <mxGeometry x="1850" y="295" width="290" height="80" as="geometry" />
        </mxCell>
        <mxCell id="JQkKBRnxrC-I06NZetCw-123" value="" style="endArrow=classic;html=1;exitX=0;exitY=0.5;exitDx=0;exitDy=0;elbow=vertical;entryX=0;entryY=0.5;entryDx=0;entryDy=0;" edge="1" parent="1" source="JQkKBRnxrC-I06NZetCw-120" target="JQkKBRnxrC-I06NZetCw-112">
          <mxGeometry width="50" height="50" relative="1" as="geometry">
            <mxPoint x="2005" y="525" as="sourcePoint" />
            <mxPoint x="1690" y="600" as="targetPoint" />
          </mxGeometry>
        </mxCell>
        <mxCell id="JQkKBRnxrC-I06NZetCw-124" value="7. 调用驱动注册的poll函数" style="edgeLabel;html=1;align=center;verticalAlign=middle;resizable=0;points=[];" vertex="1" connectable="0" parent="JQkKBRnxrC-I06NZetCw-123">
          <mxGeometry x="0.1653" y="3" relative="1" as="geometry">
            <mxPoint as="offset" />
          </mxGeometry>
        </mxCell>
        <mxCell id="JQkKBRnxrC-I06NZetCw-125" value="" style="endArrow=classic;html=1;exitX=1;exitY=0.426;exitDx=0;exitDy=0;elbow=vertical;exitPerimeter=0;entryX=0.25;entryY=0;entryDx=0;entryDy=0;" edge="1" parent="1" source="JQkKBRnxrC-I06NZetCw-112" target="JQkKBRnxrC-I06NZetCw-85">
          <mxGeometry width="50" height="50" relative="1" as="geometry">
            <mxPoint x="2080" y="620" as="sourcePoint" />
            <mxPoint x="2240" y="800" as="targetPoint" />
          </mxGeometry>
        </mxCell>
        <mxCell id="JQkKBRnxrC-I06NZetCw-126" value="8. 从RingBuffer中读取报文" style="edgeLabel;html=1;align=center;verticalAlign=middle;resizable=0;points=[];" vertex="1" connectable="0" parent="JQkKBRnxrC-I06NZetCw-125">
          <mxGeometry x="0.1653" y="3" relative="1" as="geometry">
            <mxPoint as="offset" />
          </mxGeometry>
        </mxCell>
        <mxCell id="JQkKBRnxrC-I06NZetCw-128" value="" style="endArrow=classic;html=1;exitX=1;exitY=0.25;exitDx=0;exitDy=0;elbow=vertical;entryX=0.5;entryY=1;entryDx=0;entryDy=0;" edge="1" parent="1" source="JQkKBRnxrC-I06NZetCw-112" target="JQkKBRnxrC-I06NZetCw-130">
          <mxGeometry width="50" height="50" relative="1" as="geometry">
            <mxPoint x="2080" y="605.9399999999998" as="sourcePoint" />
            <mxPoint x="2480" y="490" as="targetPoint" />
          </mxGeometry>
        </mxCell>
        <mxCell id="JQkKBRnxrC-I06NZetCw-129" value="9. 获取通用sk_buff结构，并调用上层" style="edgeLabel;html=1;align=center;verticalAlign=middle;resizable=0;points=[];" vertex="1" connectable="0" parent="JQkKBRnxrC-I06NZetCw-128">
          <mxGeometry x="0.1653" y="3" relative="1" as="geometry">
            <mxPoint as="offset" />
          </mxGeometry>
        </mxCell>
        <mxCell id="JQkKBRnxrC-I06NZetCw-130" value="" style="rounded=1;whiteSpace=wrap;html=1;glass=0;sketch=0;" vertex="1" parent="1">
          <mxGeometry x="2345" y="300" width="320" height="150" as="geometry" />
        </mxCell>
      </root>
    </mxGraphModel>
  </diagram>
  <diagram id="-WEoNAvN8ncK4T1rCFWb" name="TrafficController">
    <mxGraphModel dx="2370" dy="1177" grid="1" gridSize="10" guides="1" tooltips="1" connect="1" arrows="1" fold="1" page="1" pageScale="1" pageWidth="3300" pageHeight="4681" math="0" shadow="0">
      <root>
        <mxCell id="VA1fq8pEQBJak_JADbH4-0" />
        <mxCell id="VA1fq8pEQBJak_JADbH4-1" parent="VA1fq8pEQBJak_JADbH4-0" />
      </root>
    </mxGraphModel>
  </diagram>
  <diagram id="PuzgGjiLO8yjI31BiygU" name="NetFilter">
    <mxGraphModel dx="2370" dy="1177" grid="1" gridSize="10" guides="1" tooltips="1" connect="1" arrows="1" fold="1" page="1" pageScale="1" pageWidth="3300" pageHeight="4681" math="0" shadow="0">
      <root>
        <mxCell id="Ebh9wCePDtgmPwhpt6Vy-0" />
        <mxCell id="Ebh9wCePDtgmPwhpt6Vy-1" parent="Ebh9wCePDtgmPwhpt6Vy-0" />
        <mxCell id="Ebh9wCePDtgmPwhpt6Vy-10" value="&lt;font style=&quot;font-size: 24px&quot;&gt;Forward&lt;/font&gt;" style="rounded=1;whiteSpace=wrap;html=1;" vertex="1" parent="Ebh9wCePDtgmPwhpt6Vy-1">
          <mxGeometry x="690" y="470" width="180" height="60" as="geometry" />
        </mxCell>
        <mxCell id="Ebh9wCePDtgmPwhpt6Vy-12" value="&lt;font style=&quot;font-size: 18px&quot;&gt;mangle&lt;/font&gt;" style="rounded=1;whiteSpace=wrap;html=1;" vertex="1" parent="Ebh9wCePDtgmPwhpt6Vy-1">
          <mxGeometry x="690" y="530" width="180" height="30" as="geometry" />
        </mxCell>
        <mxCell id="Ebh9wCePDtgmPwhpt6Vy-13" value="&lt;font style=&quot;font-size: 18px&quot;&gt;filter&lt;/font&gt;" style="rounded=1;whiteSpace=wrap;html=1;" vertex="1" parent="Ebh9wCePDtgmPwhpt6Vy-1">
          <mxGeometry x="690" y="560" width="180" height="30" as="geometry" />
        </mxCell>
        <mxCell id="Ebh9wCePDtgmPwhpt6Vy-14" value="" style="endArrow=classic;html=1;exitX=1;exitY=0.5;exitDx=0;exitDy=0;entryX=0;entryY=0.5;entryDx=0;entryDy=0;" edge="1" parent="Ebh9wCePDtgmPwhpt6Vy-1" source="Ebh9wCePDtgmPwhpt6Vy-2" target="Ebh9wCePDtgmPwhpt6Vy-16">
          <mxGeometry width="50" height="50" relative="1" as="geometry">
            <mxPoint x="420" y="770" as="sourcePoint" />
            <mxPoint x="570" y="340" as="targetPoint" />
          </mxGeometry>
        </mxCell>
        <mxCell id="Ebh9wCePDtgmPwhpt6Vy-16" value="" style="rhombus;whiteSpace=wrap;html=1;rounded=0;" vertex="1" parent="Ebh9wCePDtgmPwhpt6Vy-1">
          <mxGeometry x="540" y="485" width="40" height="30" as="geometry" />
        </mxCell>
        <mxCell id="Ebh9wCePDtgmPwhpt6Vy-18" value="" style="endArrow=classic;html=1;exitX=1;exitY=0.5;exitDx=0;exitDy=0;entryX=0;entryY=0.5;entryDx=0;entryDy=0;" edge="1" parent="Ebh9wCePDtgmPwhpt6Vy-1" source="Ebh9wCePDtgmPwhpt6Vy-16" target="Ebh9wCePDtgmPwhpt6Vy-10">
          <mxGeometry width="50" height="50" relative="1" as="geometry">
            <mxPoint x="470" y="510" as="sourcePoint" />
            <mxPoint x="570" y="510" as="targetPoint" />
          </mxGeometry>
        </mxCell>
        <mxCell id="Ebh9wCePDtgmPwhpt6Vy-19" value="Routing" style="text;html=1;strokeColor=none;fillColor=none;align=center;verticalAlign=middle;whiteSpace=wrap;rounded=0;" vertex="1" parent="Ebh9wCePDtgmPwhpt6Vy-1">
          <mxGeometry x="540" y="515" width="40" height="20" as="geometry" />
        </mxCell>
        <mxCell id="jAZ9VeQ9pnI9Nz4bAQKZ-0" value="&lt;font style=&quot;font-size: 24px&quot;&gt;PostRouting&lt;/font&gt;" style="rounded=1;whiteSpace=wrap;html=1;" vertex="1" parent="Ebh9wCePDtgmPwhpt6Vy-1">
          <mxGeometry x="1130" y="470" width="180" height="60" as="geometry" />
        </mxCell>
        <mxCell id="jAZ9VeQ9pnI9Nz4bAQKZ-1" value="&lt;font style=&quot;font-size: 18px&quot;&gt;mangle&lt;/font&gt;" style="rounded=1;whiteSpace=wrap;html=1;" vertex="1" parent="Ebh9wCePDtgmPwhpt6Vy-1">
          <mxGeometry x="1130" y="530" width="180" height="30" as="geometry" />
        </mxCell>
        <mxCell id="jAZ9VeQ9pnI9Nz4bAQKZ-2" value="&lt;font style=&quot;font-size: 18px&quot;&gt;nat&lt;/font&gt;" style="rounded=1;whiteSpace=wrap;html=1;" vertex="1" parent="Ebh9wCePDtgmPwhpt6Vy-1">
          <mxGeometry x="1130" y="560" width="180" height="30" as="geometry" />
        </mxCell>
        <mxCell id="jAZ9VeQ9pnI9Nz4bAQKZ-6" value="&lt;font style=&quot;font-size: 24px&quot;&gt;Output&lt;/font&gt;" style="rounded=1;whiteSpace=wrap;html=1;" vertex="1" parent="Ebh9wCePDtgmPwhpt6Vy-1">
          <mxGeometry x="908" y="180" width="180" height="60" as="geometry" />
        </mxCell>
        <mxCell id="jAZ9VeQ9pnI9Nz4bAQKZ-7" value="&lt;font style=&quot;font-size: 18px&quot;&gt;raw&lt;/font&gt;" style="rounded=1;whiteSpace=wrap;html=1;" vertex="1" parent="Ebh9wCePDtgmPwhpt6Vy-1">
          <mxGeometry x="908" y="240" width="180" height="30" as="geometry" />
        </mxCell>
        <mxCell id="jAZ9VeQ9pnI9Nz4bAQKZ-8" value="&lt;font style=&quot;font-size: 18px&quot;&gt;conntrack&lt;/font&gt;" style="rounded=1;whiteSpace=wrap;html=1;fillColor=#dae8fc;strokeColor=#6c8ebf;" vertex="1" parent="Ebh9wCePDtgmPwhpt6Vy-1">
          <mxGeometry x="908" y="270" width="180" height="30" as="geometry" />
        </mxCell>
        <mxCell id="Ebh9wCePDtgmPwhpt6Vy-7" value="&lt;font style=&quot;font-size: 18px&quot;&gt;nat&lt;/font&gt;" style="rounded=1;whiteSpace=wrap;html=1;" vertex="1" parent="Ebh9wCePDtgmPwhpt6Vy-1">
          <mxGeometry x="240" y="620" width="180" height="30" as="geometry" />
        </mxCell>
        <mxCell id="Ebh9wCePDtgmPwhpt6Vy-2" value="&lt;font style=&quot;font-size: 24px&quot;&gt;PreRouting&lt;/font&gt;" style="rounded=1;whiteSpace=wrap;html=1;" vertex="1" parent="Ebh9wCePDtgmPwhpt6Vy-1">
          <mxGeometry x="240" y="470" width="180" height="60" as="geometry" />
        </mxCell>
        <mxCell id="Ebh9wCePDtgmPwhpt6Vy-5" value="&lt;font style=&quot;font-size: 18px&quot;&gt;raw&lt;/font&gt;" style="rounded=1;whiteSpace=wrap;html=1;" vertex="1" parent="Ebh9wCePDtgmPwhpt6Vy-1">
          <mxGeometry x="240" y="530" width="180" height="30" as="geometry" />
        </mxCell>
        <mxCell id="Ebh9wCePDtgmPwhpt6Vy-6" value="&lt;font style=&quot;font-size: 18px&quot;&gt;mangle&lt;/font&gt;" style="rounded=1;whiteSpace=wrap;html=1;" vertex="1" parent="Ebh9wCePDtgmPwhpt6Vy-1">
          <mxGeometry x="240" y="590" width="180" height="30" as="geometry" />
        </mxCell>
        <mxCell id="jAZ9VeQ9pnI9Nz4bAQKZ-14" value="&lt;font style=&quot;font-size: 18px&quot;&gt;conntrack&lt;/font&gt;" style="rounded=1;whiteSpace=wrap;html=1;fillColor=#dae8fc;strokeColor=#6c8ebf;" vertex="1" parent="Ebh9wCePDtgmPwhpt6Vy-1">
          <mxGeometry x="240" y="560" width="180" height="30" as="geometry" />
        </mxCell>
        <mxCell id="jAZ9VeQ9pnI9Nz4bAQKZ-15" value="注意：在上面的优先级更高一些。" style="text;html=1;strokeColor=none;fillColor=none;align=center;verticalAlign=middle;whiteSpace=wrap;rounded=0;glass=0;sketch=0;" vertex="1" parent="Ebh9wCePDtgmPwhpt6Vy-1">
          <mxGeometry x="160" y="770" width="260" height="20" as="geometry" />
        </mxCell>
        <mxCell id="jAZ9VeQ9pnI9Nz4bAQKZ-17" value="" style="group" vertex="1" connectable="0" parent="Ebh9wCePDtgmPwhpt6Vy-1">
          <mxGeometry x="470" y="180" width="180" height="150" as="geometry" />
        </mxCell>
        <mxCell id="jAZ9VeQ9pnI9Nz4bAQKZ-3" value="&lt;font style=&quot;font-size: 24px&quot;&gt;Input&lt;/font&gt;" style="rounded=1;whiteSpace=wrap;html=1;" vertex="1" parent="jAZ9VeQ9pnI9Nz4bAQKZ-17">
          <mxGeometry width="180" height="60" as="geometry" />
        </mxCell>
        <mxCell id="jAZ9VeQ9pnI9Nz4bAQKZ-19" style="edgeStyle=none;rounded=0;orthogonalLoop=1;jettySize=auto;html=1;exitX=0.5;exitY=0;exitDx=0;exitDy=0;" edge="1" parent="jAZ9VeQ9pnI9Nz4bAQKZ-17" source="jAZ9VeQ9pnI9Nz4bAQKZ-4" target="jAZ9VeQ9pnI9Nz4bAQKZ-3">
          <mxGeometry relative="1" as="geometry" />
        </mxCell>
        <mxCell id="jAZ9VeQ9pnI9Nz4bAQKZ-4" value="&lt;font style=&quot;font-size: 18px&quot;&gt;mangle&lt;/font&gt;" style="rounded=1;whiteSpace=wrap;html=1;" vertex="1" parent="jAZ9VeQ9pnI9Nz4bAQKZ-17">
          <mxGeometry y="60" width="180" height="30" as="geometry" />
        </mxCell>
        <mxCell id="jAZ9VeQ9pnI9Nz4bAQKZ-5" value="&lt;font style=&quot;font-size: 18px&quot;&gt;filter&lt;/font&gt;" style="rounded=1;whiteSpace=wrap;html=1;" vertex="1" parent="jAZ9VeQ9pnI9Nz4bAQKZ-17">
          <mxGeometry y="90" width="180" height="30" as="geometry" />
        </mxCell>
        <mxCell id="jAZ9VeQ9pnI9Nz4bAQKZ-16" value="&lt;font style=&quot;font-size: 18px&quot;&gt;nat&lt;/font&gt;" style="rounded=1;whiteSpace=wrap;html=1;" vertex="1" parent="jAZ9VeQ9pnI9Nz4bAQKZ-17">
          <mxGeometry y="120" width="180" height="30" as="geometry" />
        </mxCell>
        <mxCell id="jAZ9VeQ9pnI9Nz4bAQKZ-18" value="" style="endArrow=classic;html=1;entryX=0.5;entryY=1;entryDx=0;entryDy=0;" edge="1" parent="Ebh9wCePDtgmPwhpt6Vy-1" source="Ebh9wCePDtgmPwhpt6Vy-16" target="jAZ9VeQ9pnI9Nz4bAQKZ-16">
          <mxGeometry width="50" height="50" relative="1" as="geometry">
            <mxPoint x="470" y="509.9999999999999" as="sourcePoint" />
            <mxPoint x="570" y="509.9999999999999" as="targetPoint" />
          </mxGeometry>
        </mxCell>
        <mxCell id="jAZ9VeQ9pnI9Nz4bAQKZ-20" value="&lt;font style=&quot;font-size: 18px&quot;&gt;mangle&lt;/font&gt;" style="rounded=1;whiteSpace=wrap;html=1;" vertex="1" parent="Ebh9wCePDtgmPwhpt6Vy-1">
          <mxGeometry x="908" y="300" width="180" height="30" as="geometry" />
        </mxCell>
        <mxCell id="jAZ9VeQ9pnI9Nz4bAQKZ-21" value="&lt;font style=&quot;font-size: 18px&quot;&gt;nat&lt;/font&gt;" style="rounded=1;whiteSpace=wrap;html=1;" vertex="1" parent="Ebh9wCePDtgmPwhpt6Vy-1">
          <mxGeometry x="908" y="330" width="180" height="30" as="geometry" />
        </mxCell>
        <mxCell id="jAZ9VeQ9pnI9Nz4bAQKZ-22" value="&lt;font style=&quot;font-size: 18px&quot;&gt;filter&lt;/font&gt;" style="rounded=1;whiteSpace=wrap;html=1;" vertex="1" parent="Ebh9wCePDtgmPwhpt6Vy-1">
          <mxGeometry x="908" y="360" width="180" height="30" as="geometry" />
        </mxCell>
        <mxCell id="jAZ9VeQ9pnI9Nz4bAQKZ-23" value="" style="rhombus;whiteSpace=wrap;html=1;rounded=0;" vertex="1" parent="Ebh9wCePDtgmPwhpt6Vy-1">
          <mxGeometry x="978" y="485" width="40" height="30" as="geometry" />
        </mxCell>
        <mxCell id="jAZ9VeQ9pnI9Nz4bAQKZ-24" value="" style="endArrow=classic;html=1;entryX=0;entryY=0.5;entryDx=0;entryDy=0;" edge="1" parent="Ebh9wCePDtgmPwhpt6Vy-1" target="jAZ9VeQ9pnI9Nz4bAQKZ-23">
          <mxGeometry width="50" height="50" relative="1" as="geometry">
            <mxPoint x="870" y="500" as="sourcePoint" />
            <mxPoint x="700" y="510" as="targetPoint" />
          </mxGeometry>
        </mxCell>
        <mxCell id="jAZ9VeQ9pnI9Nz4bAQKZ-25" value="" style="endArrow=classic;html=1;exitX=1;exitY=0.5;exitDx=0;exitDy=0;" edge="1" parent="Ebh9wCePDtgmPwhpt6Vy-1" source="jAZ9VeQ9pnI9Nz4bAQKZ-23" target="jAZ9VeQ9pnI9Nz4bAQKZ-0">
          <mxGeometry width="50" height="50" relative="1" as="geometry">
            <mxPoint x="880" y="510" as="sourcePoint" />
            <mxPoint x="980" y="510" as="targetPoint" />
          </mxGeometry>
        </mxCell>
        <mxCell id="jAZ9VeQ9pnI9Nz4bAQKZ-26" value="" style="endArrow=classic;html=1;exitX=0.5;exitY=1;exitDx=0;exitDy=0;entryX=0.5;entryY=0;entryDx=0;entryDy=0;" edge="1" parent="Ebh9wCePDtgmPwhpt6Vy-1" source="jAZ9VeQ9pnI9Nz4bAQKZ-22" target="jAZ9VeQ9pnI9Nz4bAQKZ-23">
          <mxGeometry width="50" height="50" relative="1" as="geometry">
            <mxPoint x="590" y="510" as="sourcePoint" />
            <mxPoint x="700" y="510" as="targetPoint" />
          </mxGeometry>
        </mxCell>
        <mxCell id="jAZ9VeQ9pnI9Nz4bAQKZ-28" value="&lt;font style=&quot;font-size: 24px&quot;&gt;Local Process&lt;/font&gt;" style="rounded=1;whiteSpace=wrap;html=1;glass=0;sketch=0;fillColor=#FFFFFF;" vertex="1" parent="Ebh9wCePDtgmPwhpt6Vy-1">
          <mxGeometry x="510" y="80" width="530" height="60" as="geometry" />
        </mxCell>
      </root>
    </mxGraphModel>
  </diagram>
  <diagram id="xrxa5gC6eUA3mRPHc739" name="TCP">
    <mxGraphModel dx="1673" dy="831" grid="1" gridSize="10" guides="1" tooltips="1" connect="1" arrows="1" fold="1" page="1" pageScale="1" pageWidth="3300" pageHeight="4681" math="0" shadow="0">
      <root>
        <mxCell id="EPgiynWe0UcLd9ibrZJD-0" />
        <mxCell id="EPgiynWe0UcLd9ibrZJD-1" parent="EPgiynWe0UcLd9ibrZJD-0" />
        <mxCell id="EPgiynWe0UcLd9ibrZJD-3" value="&lt;font style=&quot;font-size: 24px&quot;&gt;ESTABLISTED&lt;/font&gt;" style="rounded=1;whiteSpace=wrap;html=1;glass=0;sketch=0;fillColor=#FFFFFF;arcSize=50;" vertex="1" parent="EPgiynWe0UcLd9ibrZJD-1">
          <mxGeometry x="690" y="750" width="220" height="60" as="geometry" />
        </mxCell>
        <mxCell id="EPgiynWe0UcLd9ibrZJD-4" value="&lt;font style=&quot;font-size: 24px&quot;&gt;ESTABLISTED&lt;/font&gt;" style="rounded=1;whiteSpace=wrap;html=1;glass=0;sketch=0;fillColor=#FFFFFF;arcSize=50;" vertex="1" parent="EPgiynWe0UcLd9ibrZJD-1">
          <mxGeometry x="740" y="440" width="220" height="60" as="geometry" />
        </mxCell>
      </root>
    </mxGraphModel>
  </diagram>
</mxfile>
